# xmcd
#
# Track frame offsets:
#	150
#	16300
#	27646
#	45609
#	59443
#	73226
#	86835
#	99595
#	112960
#	129043
#	141660
#	158348
#	172423
#	185456
#	201153
#	214876
#	227185
#
# Disc length: 3237 seconds
#
# Revision: 1
# Processed by: cddbd v1.5.2PL0 Copyright (c) Steve Scherf et al.
# Submitted via: audiograbber 1.83.01
#
DISCID=fb0ca311
DTITLE=Johnny Greenwood - 50th Anniversary Album of Recording 1963-2013
DYEAR=2013
DGENRE=Country
TTITLE0=Australia's Bery Hinkler
TTITLE1=Jindawarrabell
TTITLE2=A-U-S-T-R-A-L-I-A
TTITLE3=The Little Kangaroo
TTITLE4=Just Saddle Old Darky
TTITLE5=Mary My Wildflower Sweetheart
TTITLE6=Old Horsemen Like Me
TTITLE7=Out On The Warrego
TTITLE8=Lance Skuthorpe's Daring Leap
TTITLE9=The Darling is The Darling (Of My Heart)
TTITLE10=A Picture Of Home
TTITLE11=Where The Bellbirds Call
TTITLE12=The Wobbly Boot Hotel
TTITLE13=Bluey The Cattledog
TTITLE14=Shadows On The Trail
TTITLE15=Out On The Queensland Ranges
TTITLE16=The Bracewell Pioneers
EXTD=
EXTT0=
EXTT1=
EXTT2=
EXTT3=
EXTT4=
EXTT5=
EXTT6=
EXTT7=
EXTT8=
EXTT9=
EXTT10=
EXTT11=
EXTT12=
EXTT13=
EXTT14=
EXTT15=
EXTT16=
PLAYORDER=
